<svg width="32" height="32" viewBox="0 0 32 32" fill="none" xmlns="http://www.w3.org/2000/svg">
<path opacity="0.3" fill-rule="evenodd" clip-rule="evenodd" d="M5.60007 8.95996H26.4001C27.107 8.95996 27.6801 9.53304 27.6801 10.24V28.32H4.32007V10.24C4.32007 9.53304 4.89314 8.95996 5.60007 8.95996Z" fill="white" stroke="#C6C6C6"/>
<path fill-rule="evenodd" clip-rule="evenodd" d="M24 5.28002V21.6H8V3.04002C8 2.68656 8.28654 2.40002 8.64 2.40002H21.12L24 5.28002Z" fill="white" stroke="#C6C6C6"/>
<path fill-rule="evenodd" clip-rule="evenodd" d="M15.5199 11.68C15.785 11.68 15.9999 11.8949 15.9999 12.16C15.9999 12.425 15.785 12.64 15.5199 12.64H11.3599C11.0948 12.64 10.8799 12.425 10.8799 12.16C10.8799 11.8949 11.0948 11.68 11.3599 11.68H15.5199ZM20.6399 9.43995C20.905 9.43995 21.1199 9.65485 21.1199 9.91995C21.1199 10.185 20.905 10.4 20.6399 10.4H11.3599C11.0948 10.4 10.8799 10.185 10.8799 9.91995C10.8799 9.65485 11.0948 9.43995 11.3599 9.43995H20.6399ZM20.6399 7.19995C20.905 7.19995 21.1199 7.41485 21.1199 7.67995C21.1199 7.94505 20.905 8.15995 20.6399 8.15995H11.3599C11.0948 8.15995 10.8799 7.94505 10.8799 7.67995C10.8799 7.41485 11.0948 7.19995 11.3599 7.19995H20.6399Z" fill="#C6C6C6"/>
<path fill-rule="evenodd" clip-rule="evenodd" d="M20.96 2.23999L24.16 5.43999H21.28C21.1032 5.43999 20.96 5.29672 20.96 5.11999V2.23999Z" fill="#C6C6C6"/>
<path fill-rule="evenodd" clip-rule="evenodd" d="M2.32416 11.52H10.1112C10.2949 11.52 10.4696 11.5989 10.5911 11.7366L12.609 14.0235C12.7305 14.1611 12.9052 14.24 13.0889 14.24H29.6292C30.3361 14.24 30.9092 14.8131 30.9092 15.52C30.9092 15.6069 30.9004 15.6935 30.8828 15.7785L28.316 28.2277C28.132 29.1199 27.3465 29.76 26.4355 29.76H5.61253C4.68014 29.76 3.88253 29.0902 3.72141 28.1718L1.06341 13.0212C0.941257 12.3249 1.40668 11.6614 2.10297 11.5393C2.17601 11.5265 2.25001 11.52 2.32416 11.52Z" fill="white" stroke="#C6C6C6"/>
</svg>
