<svg width="16" height="20" viewBox="0 0 16 20" fill="none" xmlns="http://www.w3.org/2000/svg">
<g id="Group">
<path id="Vector" d="M14.414 4.414L11.586 1.586C11.211 1.211 10.702 1 10.172 1H3C1.895 1 1 1.895 1 3V17C1 18.105 1.895 19 3 19H13C14.105 19 15 18.105 15 17V5.828C15 5.298 14.789 4.789 14.414 4.414Z" fill="white" stroke="#A8A8A8" stroke-linecap="round" stroke-linejoin="round"/>
<rect id="Rectangle 1481" x="4" y="10" width="8" height="5" rx="0.5" stroke="#FD7425" stroke-linecap="round" stroke-linejoin="round"/>
<path id="Rectangle 1482" d="M3.5 9.5C3.5 8.94772 3.94772 8.5 4.5 8.5H11.5C12.0523 8.5 12.5 8.94772 12.5 9.5V10.5H3.5V9.5Z" fill="#FD7425"/>
<path id="Rectangle 1483" d="M3.5 14.5H12.5V15.5C12.5 16.0523 12.0523 16.5 11.5 16.5H4.5C3.94772 16.5 3.5 16.0523 3.5 15.5V14.5Z" fill="#FD7425"/>
</g>
</svg>
